<svg version="1.2" xmlns="http://www.w3.org/2000/svg" viewBox="0 0 134 125" width="134" height="125">
	<title>il_fullxfull</title>
	<style>
		.s0 { fill: #000000 } 
	</style>
	<g id="g12">
		<path id="path2" class="s0" d="m116.8 1.3c-3.9 2.7-10.7 5.9-16.5 7.8-10.7 3.6-22.6 5.3-36.8 5.3-5 0-6.6 0.1-8.9 0.7q-2.9 0.7-4.9 2.2l-1 0.7 2.2 0.1c3.2 0.1 5.1 0.6 6.5 1.6 1.9 1.4 1.9 3.5-0.1 5.7-2.9 3.2-8.5 4.8-15 4.4-2.8-0.2-5.5-0.6-10.9-1.6-8.3-1.5-11.3-1.8-15.4-1.7-4.7 0.1-7.5 0.9-10.1 2.7-2.6 1.9-4.4 5.1-4.9 8.8-0.1 0.6-0.2 1.1-0.5 1.6l-0.5 0.7 0.1 2.4 0.1 2.5 1.1 1.5c1.5 2.3 4.3 5.9 6.7 8.8 1.2 1.4 2.2 2.7 2.3 2.8 0.2 0.2 0.1 0.2-1.5 0.2-1.4 0-1.7 0.1-2.4 0.4-1.1 0.5-1.2 0.6-1.2 2.2-0.2 2.1 0.3 4.3 1.6 7 1 1.9 1.9 3.1 2.7 3.5 0.9 0.4 3.2 0.3 5.3-0.2l1.6-0.4-0.1-1.7-0.1-1.7h2.8 2.8l0.8 0.7c4.1 3.9 11.3 8.8 21 14.4 7 4 16.4 8.8 23.7 12.3 1.8 0.9 3.4 1.7 3.4 1.7 0.1 0.1-0.3 1-0.8 1.6-1.1 1.3-2.1 1.3-3.5 0.1-2-1.8-4.1-2.3-6.2-1.4-0.4 0.2-2.5 1.1-4.8 2-4 1.7-4.1 1.8-4.3 2.3-0.6 1.4-0.5 4 0.1 7.3 1.1 5.1 3.2 8.3 7 10.6 0.9 0.5 2.5 1.2 3 1.2 0.3 0 9.1-5 9.6-5.5 0.6-0.5 0.8-1.6 0.8-4v-2.2l0.4-0.1c0.2-0.1 1.3-0.5 2.3-1 2.2-0.9 8.8-3.6 11.4-4.7 1-0.4 2.8-1.1 3.9-1.6l2.1-0.8 1.3 0.2c4.6 0.7 9.2 0.4 13.1-0.9 1.8-0.6 3-1.2 4.9-2.4 4.1-2.7 7.1-5.7 10-10 1-1.6 2.9-4.8 2.9-5 0-0.1-7-6.5-7.6-7-0.2-0.2-0.3-0.2-0.4-0.1 0 0.1-0.1 1.2-0.2 2.5l-0.3 2.4 1.8 1.8c0.9 0.9 1.7 1.8 1.7 1.8 0 0.4-1.4 2.2-2.6 3.3-1.1 1.1-1.7 1.6-2.6 2.1-0.6 0.3-1.2 0.6-1.2 0.6 0-0.1-0.2-0.7-0.4-1.3-0.3-1.2-0.4-1.4-0.2-2.1 0.4-1.5 0.5-4 0.5-9.2 0-8.2 0.4-11 1.8-12.2 0.4-0.4 0.6-0.4 1.4-0.4 1.4 0 2.5 0.6 3.1 1.7 0.5 0.8 0.4 2.9-0.1 4.3-0.2 0.7-0.3 1.2-0.3 1.2 0.1 0.2 1.3-0.6 1.8-1.2 1.5-1.5 2.1-3.8 1.9-7.4-0.1-2.2-0.3-4.2-1.2-10.1-0.9-5.8-0.9-6.2-0.8-8.4 0.1-5 2-9.1 5.6-12.8 1.4-1.4 1.4-1.5 0.1-0.8-7 3.9-10.8 13.2-10.6 26l0.1 3.3h-1.2c-1.4 0-2.2 0.4-3.3 1.5-1.5 1.7-1.9 3.1-2.2 7.7-0.1 1.9-0.3 4.2-0.5 5.2-0.3 1.7-0.9 4.3-1.2 4.6 0 0.1-0.5-0.2-1.6-1.3-1.9-1.8-4.4-3.9-6.5-5.4-1.9-1.4-2-1.5-1.2-2.9 0.5-1.2 1.3-1.7 2.7-1.8 1.3 0 2.5 0.2 3.9 0.7l1 0.4 0.2-1.1c0.1-0.6 0.2-1.6 0.3-2.2l0.2-1.2-0.4-0.3c-0.7-0.5-3.3-1.3-5.5-1.6l-1.2-0.1 0.7-0.7c1.8-1.7 7-4.6 12.4-7l1.1-0.5-0.2-1.1c-0.3-1.5-0.3-5.2 0-6.9 0.9-4.7 2.7-9 5.9-13.9 1.2-1.9 3.5-4.9 4.7-6.2 0.5-0.5 0.9-1 0.9-1 0-0.2-3 1.4-4.3 2.3-6.2 4.1-10 10.1-11.3 17.5-0.3 1.7-0.5 4.4-0.4 5.9l0.1 1.3-1 0.4c-0.6 0.2-1.8 0.8-2.7 1.2-6.4 3.2-10.6 7.1-13 12.2l-0.7 1.5-0.6-0.4c-0.3-0.2-0.6-0.3-0.7-0.3q-0.6 0 0.7-3.2c2.2-5.2 6.6-9.6 12.4-12.6 1.7-1 1.6-1-0.8-0.6q-7.3 1.4-13.4 7.7c-1.3 1.3-3.4 3.9-4.3 5.2l-0.2 0.4-1.3-0.7-1.2-0.7 0.7-0.5c2.1-1.8 5.4-5.5 7.5-8.5 2.4-3.6 5.3-9.1 6.6-12.6l0.3-0.9-0.3 0.4c-4.6 6.1-10.3 11.2-17.8 16.1-2.3 1.5-4 2.5-4.3 2.5-0.1 0-0.6-0.2-0.9-0.4-0.9-0.4-0.9-0.3 0.8-1.2 1.3-0.8 4.3-2.7 5.8-3.8 8.5-6.5 15.9-16.4 20.2-27.2 0.6-1.8 1.5-4.2 1.5-4.4 0 0-0.5 0.7-1 1.7-1.2 2.1-2.4 3.9-3.7 5.5-0.5 0.7-1.1 1.4-1.2 1.6-1.2 1.6-4.7 5.2-7.4 7.5-3.2 2.9-5.8 4.8-10.5 7.8-3.7 2.4-11.8 6.5-15 7.6l-0.7 0.2-2.9-1.1c-1.6-0.6-3.5-1.4-4.2-1.6-0.7-0.3-1.3-0.5-1.4-0.6-0.1 0 0.1-0.4 0.3-0.7 0.4-0.6 1-1.9 1.3-3.1 0.3-1.1 0.2-4.4-0.1-6.1-0.3-1.3-0.7-2.8-1.1-3.8-0.1-0.2 0.2-0.1 1.5 0.2l1.6 0.3 2.1-2.2 2.1-2.2h-0.7c-1.1-0.1-4.6 0.2-6.9 0.6-1.9 0.2-6.4 1-6.5 1.1 0 0.1 0.3 0.5 0.6 0.9 3 3.9 3.6 7.5 2 10.7-0.5 1-1.5 2.3-1.8 2.3-0.1 0-1.5-0.5-3.1-1-3.1-1.1-6-2.3-8.3-3.4l-1.2-0.6 0.9-0.2c1.5-0.3 5.8-0.6 8.8-0.7 1.5-0.1 2.7-0.2 2.8-0.2 0.1-0.3-0.8-1.9-1.7-3.1-1.2-1.6-5-5.5-5.5-5.7-1.1-0.5-4.8-0.8-7.2-0.6l-1.6 0.1 1.2 0.5c2.3 0.9 4.5 2.5 6.6 4.6l1.2 1.2-0.6-0.1c-1.9-0.2-2.8-0.3-5.4-0.3-1.6 0-3.6 0.1-4.7 0.2l-1.9 0.2-1.2-0.8c-1-0.7-1.1-0.8-0.9-1 0.5-0.3 2.5-1.3 3.8-1.8 0.8-0.3 1.4-0.6 1.4-0.6 0.1-0.1-1-0.6-1.7-0.8-2.7-0.9-4.2-1.2-6.8-1.2-3.3 0-6.5 0.7-9.7 2.1-0.6 0.3-1.1 0.4-2.2 0.5-0.9 0-1.8 0.1-2.1 0.2-0.3 0-0.5 0-0.5-0.1 0-0.3 2.2-2.5 3.1-3.1 0.8-0.5 2.1-1.1 3.4-1.6 1.5-0.6 4.3-1 7.4-1.1 3.4-0.2 7.1 0.1 17 1.2 3.7 0.4 4.4 0.5 8.6 0.5 5.1 0 5.8-0.1 8.7-0.9 2.5-0.8 4.4-2 5.8-3.5 1.5-1.6 2.3-3.4 2.4-5.3l0.1-1.1h4.2c11.2 0.2 20.8-1.9 30.4-6.6 6.1-3 11.1-6.5 15.6-11 1.3-1.2 2.4-2.4 2.2-2.4 0 0-0.2 0.2-0.5 0.3zm-99.8 35.4c2.2 0.2 4.2 0.5 6.1 0.9 1.5 0.4 1.6 0.4 3.1 1.5q4.1 3.1 8.3 5.2c2 1 3.7 1.7 6.7 2.7 25.2 8.3 45.2 18.3 56.8 28.3 5.6 4.8 9.2 9.6 11.2 14.5 0.4 1.2 0.4 1.2-0.8 1.9-2.5 1.5-8.2 2.3-14.7 2.1-11-0.3-20.6-2.2-30.9-6.1-1.8-0.7-2.9-1.2-5.5-2.4-3.7-1.6-11-5.7-13.3-7.4-0.7-0.6-0.7-0.6-0.5 0.1 0.2 0.8 0.4 0.9 3.5 2.8 14.8 8.8 29.8 14.1 42.6 15.3 2.5 0.2 8.7 0 10.7-0.3 2.9-0.4 5.3-1 7.5-1.8 0.7-0.2 1.2-0.4 1.3-0.3 0.1 0-0.2 1.7-0.3 2.2-0.1 0.4-1.5 1.2-2.5 1.6-2.3 0.9-4.7 1.2-8.9 1.2-5 0-10.3-0.6-16.4-1.8-9.1-1.9-19.9-6.3-32.3-13.4-6.5-3.7-15.9-9.8-20-13-0.5-0.4-1.8-1.3-2.9-2.1-8.9-5.6-15.8-11.8-21.6-19.5-2.1-2.6-2.1-2.8-2.5-4.8-0.3-1.8-0.3-1.9 0-2.2 2.5-3.1 6.1-4.8 10.9-5.2 2-0.1 2.5-0.1 4.4 0zm-6 22.9c0.4 0.1 0.6 0.4 1.3 1.3 0.4 0.7 1.1 1.6 1.4 2.1l0.7 1 0.3 2.9c0.3 1.9 0.4 2.9 0.3 2.9-0.1 0.1-1.3 0.3-2.6 0.5l-2.4 0.5-0.5-0.4c-0.6-0.5-1.8-2.1-2.4-3.1-0.9-1.7-1.5-4.4-1.2-6.2 0.1-0.6 0.2-0.7 0.8-1.1 1.2-0.6 2.7-0.8 4.3-0.4zm52.4 38.6c2.4 1.1 5.1 4.2 6.3 7.2 0.9 2.2 1.1 5.4 0.6 7.7-0.2 0.7-0.3 0.8-0.9 1.1-0.4 0.2-1.8 1-3.2 1.7-1.3 0.7-2.4 1.3-2.5 1.3 0 0 0-1 0-2.4 0.1-2 0-2.5-0.2-3.9-0.4-1.8-0.9-3.3-1.7-4.6-0.6-1-2.2-2.8-3.2-3.6l-0.6-0.5 0.1 0.4c0.2 0.7 0.3 1 1.2 2.3 0.5 0.6 1.3 2 1.8 3 1.9 3.9 2.2 6.8 1.1 9.2l-0.5 0.9-1.2-0.1c-1.9-0.1-3.2-0.8-4.8-2.6-2.4-2.9-4.3-10.6-3.2-13.1 0.4-0.9 0.8-1.3 1.5-1.5 0.4-0.2 2.3-0.9 4.3-1.7 2.5-1 3.6-1.4 3.9-1.3 0.2 0 0.7 0.2 1.2 0.5z"/>
		<path id="path4" class="s0" d="m3.1 45.6c0 0.7 0.4 1.3 2 3.3 3.3 4.1 9.4 9.8 15.4 14.4 4.1 3.2 13 9.3 13.6 9.3 0.1 0 0.5-0.8 0.5-1.1 0-0.1-0.2-0.2-0.4-0.3-0.9-0.4-7.9-5.2-11.2-7.5-3.3-2.4-8.4-6.4-10-7.9-0.4-0.4-1.5-1.5-2.6-2.5-2.6-2.4-5.3-5.5-7-7.9l-0.3-0.4z"/>
		<path id="path6" class="s0" d="m55 105.1c-1 0.6-0.7 2.5 0.6 5.1 1.5 2.9 2.9 3.8 3.5 2.2 0.7-1.5-0.2-4.7-1.8-6.4-0.9-1.1-1.7-1.4-2.3-0.9z"/>
		<path id="path8" class="s0" d="m107 15.7c-0.2 0.1-5.9 2.1-8.4 2.9-8.4 2.6-15.3 4.3-21.6 5-2 0.3-5.9 0.2-7.3 0-0.7-0.2-1.2-0.2-1.3-0.2-0.1 0.2-2.7 4.2-2.7 4.3 0 0 0.7 0 1.4 0.1 0.8 0 1.9 0 2.6 0.1l1.2 0.1-1.3 0.7c-3.8 2.1-7.8 5.5-9.6 8-2 2.9-2.9 6.2-2.3 8.8 0.5 2.6 2.3 3.9 5.5 3.9 5.4 0 13.7-4.3 22.2-11.6 4.2-3.6 8-7.7 9.9-10.8 0.6-1 1.4-2.7 1.4-3 0 0-0.5 0.5-1.1 1.2-0.7 0.7-1.4 1.5-1.6 1.7-0.3 0.2-0.8 0.7-1.3 1.1-0.9 0.8-3.5 2.8-4.7 3.5-1.1 0.7-3.8 2-5.1 2.4-2.1 0.7-3.3 0.9-6 0.8l-2.3-0.1-2.1 1.6c-2.5 1.9-2.6 1.8 1.6 1.9 2.3 0 3.2 0 4.2-0.2 0.7-0.1 1.5-0.2 1.6-0.3 0.4-0.1-1 1-2.6 2.2-5 3.8-9.2 5.6-11.4 5-0.9-0.2-1.7-1-2-1.9-0.3-0.7-0.3-1.1-0.3-2.1 0.1-1 0.1-1.3 0.6-2.3 0.6-1.2 2-2.8 3.6-4 2.8-2.1 7.5-4.4 12.4-6 0.9-0.3 2.1-0.8 2.6-1 3.2-1.2 11.3-5 19.3-9.1 4.3-2.2 5.3-2.7 5-2.7q-0.1 0-0.1 0z"/>
		<path id="path10" class="s0" d="m22.7 20.9c1.2 1.7 2.5 3.4 2.8 3.8l0.5 0.7 4.7 0.4c2.6 0.3 4.7 0.4 4.7 0.4 0 0-0.7-0.8-1.6-1.8-1.5-1.4-1.6-1.6-1.3-1.6 1.2 0.3 5.5 1.2 7.7 1.5 6.1 1.1 9.7 1.4 11.3 1 1.2-0.3 2.2-0.8 3-1.5 0.6-0.5 1.4-1.5 1.4-1.8 0 0-1.2-0.1-2.6-0.1-7.6 0-19.4-1.4-30.3-3.6-1.3-0.3-2.4-0.5-2.5-0.5 0 0 1 1.4 2.2 3.1z"/>
	</g>
</svg>